<svg width="326" height="388" viewBox="0 0 326 388" fill="none" xmlns="http://www.w3.org/2000/svg">
<path d="M38.9592 143.644V219.978C38.9341 230.668 41.0158 241.258 45.0854 251.143C49.1549 261.027 55.1325 270.013 62.6765 277.587C70.2205 285.16 79.183 291.173 89.0518 295.281C98.9206 299.389 109.502 301.512 120.192 301.529H205.814C227.348 301.495 247.99 292.926 263.217 277.699C278.444 262.473 287.013 241.83 287.047 220.296V143.962C287.072 133.272 284.99 122.682 280.921 112.797C276.851 102.912 270.874 93.9265 263.33 86.353C255.786 78.7794 246.823 72.7668 236.954 68.6587C227.085 64.5505 216.504 62.4275 205.814 62.4108H120.192C98.6581 62.4444 78.0157 71.0136 62.7889 86.2405C47.5621 101.467 38.9929 122.11 38.9592 143.644ZM205.814 288.807H120.192C102.027 288.79 84.611 281.566 71.7665 268.722C58.9219 255.877 51.6985 238.461 51.6817 220.296V149.75L56.3253 148.16C69.1652 143.794 83.1378 144.129 95.7543 149.103C108.371 154.077 118.812 163.369 125.217 175.322L143.283 238.426C139.565 243.645 137.564 249.892 137.558 256.301C137.175 263.462 139.632 270.484 144.396 275.844C149.16 281.204 155.847 284.467 163.003 284.926C170.165 284.484 176.862 281.225 181.629 275.861C186.397 270.498 188.848 263.466 188.448 256.301C188.472 249.888 186.468 243.631 182.723 238.426L201.17 175.322C207.574 163.383 218.004 154.101 230.607 149.128C243.209 144.154 257.167 143.811 269.999 148.16L274.642 149.75V220.296C274.634 229.318 272.846 238.249 269.38 246.578C265.914 254.907 260.839 262.47 254.445 268.834C248.051 275.199 240.465 280.239 232.12 283.666C223.775 287.093 214.835 288.84 205.814 288.807ZM175.725 255.983C176.086 259.767 174.96 263.543 172.585 266.511C170.211 269.48 166.774 271.407 163.003 271.886C159.38 271.087 156.138 269.076 153.814 266.184C151.49 263.292 150.223 259.693 150.223 255.983C150.223 252.273 151.49 248.674 153.814 245.782C156.138 242.89 159.38 240.878 163.003 240.08C166.774 240.558 170.211 242.486 172.585 245.454C174.96 248.423 176.086 252.199 175.725 255.983ZM120.192 75.1332H205.814C222.685 75.157 238.954 81.399 251.512 92.6654C264.069 103.932 272.032 119.432 273.879 136.201C258.092 130.854 240.914 131.319 225.439 137.512C209.963 143.704 197.207 155.217 189.466 169.979L172.227 229.393C169.392 228.095 166.311 227.423 163.194 227.423C160.076 227.423 156.995 228.095 154.161 229.393L137.558 171.188L137.049 169.915C129.299 155.083 116.489 143.52 100.944 137.323C85.3984 131.125 68.1467 130.705 52.3178 136.137C54.1886 119.418 62.1351 103.967 74.6479 92.7211C87.1607 81.4749 103.368 75.216 120.192 75.1332Z" fill="#CF5B2E"/>
<path d="M31.4511 92.6264C32.5348 93.4393 33.8497 93.885 35.2042 93.8987C36.208 93.9013 37.198 93.6663 38.0936 93.213C38.9891 92.7597 39.7646 92.101 40.3568 91.2906C40.8514 90.6145 41.2076 89.8475 41.405 89.0335C41.6024 88.2195 41.637 87.3745 41.507 86.547C41.377 85.7195 41.0848 84.9259 40.6473 84.2117C40.2097 83.4974 39.6354 82.8766 38.9574 82.3848C23.2451 70.9347 13.5125 34.7393 18.6651 18.7726C20.5098 13.1748 23.2451 13.1748 24.581 13.1748C32.9778 13.1748 70.509 42.6908 81.832 53.7593C83.0239 54.9441 84.6361 55.6091 86.3167 55.6091C87.9972 55.6091 89.6095 54.9441 90.8013 53.7593C91.9861 52.5675 92.6511 50.9552 92.6511 49.2747C92.6511 47.5941 91.9861 45.9819 90.8013 44.79C90.4197 44.3447 42.456 0.261475 24.8355 0.261475C20.6606 0.304527 16.6203 1.74329 13.3579 4.34861C10.0955 6.95392 7.79864 10.576 6.8332 14.6378C-0.16414 35.5026 10.9044 77.6776 31.4511 92.6264Z" fill="#CF5B2E"/>
<path d="M65.6137 56.6219L40.1689 31.1771C39.5757 30.5839 38.8716 30.1135 38.0967 29.7925C37.3217 29.4715 36.4912 29.3063 35.6524 29.3063C34.8136 29.3063 33.983 29.4715 33.2081 29.7925C32.4332 30.1135 31.729 30.5839 31.1359 31.1771C30.5428 31.7702 30.0723 32.4743 29.7513 33.2492C29.4303 34.0242 29.2651 34.8547 29.2651 35.6935C29.2651 36.5323 29.4303 37.3629 29.7513 38.1378C30.0723 38.9128 30.5428 39.6169 31.1359 40.21L56.5808 65.6549C57.1752 66.2444 57.8801 66.7109 58.6551 67.0274C59.4302 67.344 60.2601 67.5045 61.0973 67.4996C61.9344 67.5045 62.7644 67.344 63.5394 67.0274C64.3144 66.7109 65.0193 66.2444 65.6137 65.6549C66.21 65.0635 66.6832 64.36 67.0061 63.5848C67.3291 62.8096 67.4954 61.9782 67.4954 61.1384C67.4954 60.2986 67.3291 59.4672 67.0061 58.692C66.6832 57.9169 66.21 57.2133 65.6137 56.6219Z" fill="#CF5B2E"/>
<path d="M244.428 53.9497C255.496 42.8812 293.027 13.3651 301.679 13.3651C302.951 13.3651 305.686 13.3651 307.531 18.963C312.747 34.8661 302.951 71.0614 287.302 82.5752C286.624 83.067 286.05 83.6878 285.612 84.402C285.175 85.1163 284.883 85.9099 284.753 86.7374C284.623 87.5648 284.657 88.4098 284.855 89.2238C285.052 90.0379 285.408 90.8049 285.903 91.4809C286.495 92.2913 287.271 92.9501 288.166 93.4034C289.062 93.8567 290.052 94.0916 291.055 94.089C292.388 94.062 293.679 93.617 294.745 92.8168C315.292 77.8679 326.551 35.5658 319.617 15.0827C318.665 11.0259 316.38 7.40545 313.128 4.79949C309.877 2.19352 305.845 0.752392 301.679 0.706299C283.994 0.706299 236.094 44.5987 235.649 45.2348C234.908 46.4558 234.599 47.8907 234.772 49.3086C234.945 50.7264 235.591 52.0447 236.605 53.0511C237.618 54.0575 238.941 54.6934 240.36 54.8564C241.779 55.0194 243.212 54.7 244.428 53.9497Z" fill="#CF5B2E"/>
<path d="M294.871 31.1771C294.279 30.5808 293.576 30.1076 292.801 29.7846C292.025 29.4617 291.194 29.2954 290.354 29.2954C289.514 29.2954 288.683 29.4617 287.908 29.7846C287.133 30.1076 286.429 30.5808 285.838 31.1771L260.393 56.6219C259.797 57.2133 259.323 57.9169 259 58.692C258.678 59.4672 258.511 60.2986 258.511 61.1384C258.511 61.9782 258.678 62.8096 259 63.5848C259.323 64.36 259.797 65.0635 260.393 65.6549C260.984 66.2511 261.688 66.7243 262.463 67.0473C263.238 67.3702 264.07 67.5365 264.909 67.5365C265.749 67.5365 266.581 67.3702 267.356 67.0473C268.131 66.7243 268.834 66.2511 269.426 65.6549L294.871 40.21C295.467 39.6186 295.94 38.9151 296.263 38.1399C296.586 37.3647 296.752 36.5333 296.752 35.6935C296.752 34.8538 296.586 34.0223 296.263 33.2471C295.94 32.472 295.467 31.7684 294.871 31.1771Z" fill="#CF5B2E"/>
<path d="M311.092 204.838C310.189 203.413 308.757 202.404 307.111 202.034C305.465 201.664 303.739 201.964 302.313 202.866C300.888 203.769 299.879 205.201 299.509 206.847C299.139 208.493 299.439 210.219 300.341 211.645C316.499 237.09 316.944 260.881 301.741 284.035C267.199 336.579 161.794 368.194 127.316 374.11C132.165 367.138 137.433 360.468 143.092 354.136C144.24 353.081 144.984 351.658 145.193 350.113C145.402 348.567 145.064 346.998 144.237 345.676L141.056 341.096L131.96 344.594C110.785 353.358 88.9373 360.399 66.6301 365.65C72.436 358.124 77.3461 349.948 81.2609 341.286C81.8796 339.859 82.0587 338.28 81.7754 336.75C81.4922 335.22 80.7593 333.81 79.6706 332.699C78.5637 331.582 77.1412 330.83 75.5945 330.546C74.0478 330.262 72.4511 330.458 71.0193 331.108C46.2742 341.922 24.7096 345.167 8.74296 340.459C7.08961 339.979 5.31295 340.174 3.80386 341.003C2.29476 341.832 1.17685 343.227 0.696023 344.88C0.2152 346.534 0.410866 348.31 1.23997 349.82C2.06908 351.329 3.46371 352.447 5.11707 352.927C21.3382 357.698 40.9307 356.044 63.5131 348.029C59.815 354.753 54.8966 360.728 49.0095 365.65C47.542 366.598 46.4245 368 45.8274 369.642C45.2303 371.285 45.1861 373.077 45.7017 374.746C46.207 376.389 47.2432 377.817 48.6477 378.807C50.0523 379.797 51.7456 380.293 53.4623 380.217C72.2279 379.581 97.9909 370.993 119.873 362.978L109.823 376.4C108.762 377.741 108.239 379.43 108.357 381.135C108.475 382.841 109.224 384.441 110.459 385.624C112.924 387.166 115.842 387.817 118.728 387.469C147.672 387.469 238.828 358.144 285.392 320.167C327.885 285.308 336.728 245.486 311.092 204.838Z" fill="#CF5B2E"/>
</svg>
